<svg width="937" height="647" viewBox="0 0 937 647" fill="none" xmlns="http://www.w3.org/2000/svg">
<rect width="937" height="647" fill="#1E1E1E"/>
<g id="EGPI convert">
<g id="references">
<path id="55.41.03.09,-6.15.00.63" d="M701.243 283.794L706.878 283.789M704.064 286.603L704.058 280.977" stroke="#E9A636" stroke-width="0.333333"/>
<path id="55.41.10.83,-6.16.05.99" d="M269.35 193.97L274.985 193.964M272.172 196.778L272.164 191.152" stroke="#E9A636" stroke-width="0.333333"/>
<path id="55.40.49.83,-6.15.03.83" d="M680.342 438.696L685.979 438.691M683.164 441.507L683.154 435.881" stroke="#E9A636" stroke-width="0.333333"/>
</g>
<g id="regions">
<g id="grass (smrSCOGrass)">
<path id="grass" d="M761.71 301.157L762.347 298.103L758.014 289.943L701.419 174.558L669.103 197.698L622.127 269.185L602.37 287.199L535.216 309.812L517.606 299.863L477.025 276.513L289.029 164.233L274.883 156.263L247.178 141.244L247.536 140.315L247.563 138.379L233.929 119.304L202.71 152.659L215.883 188.049L222.357 205.73L229.88 214.121L314.356 285.993L334.38 350.895L362.594 406.472L394.63 481.523L500.116 557.314L526.688 575.932L545.79 543.744L563.993 528.146L566.761 525.647L568.157 525.148L707.406 489.866L708.224 489.522L713.877 484.977L740.391 464.815L742.211 448.122L742.19 446.519L723.027 393.719L715.33 373.16L714.949 370.809L713.804 349.179L729.789 338.202C729.789 338.202 732.996 336.286 733.808 335.808C734.621 335.33 736.868 334.563 736.868 334.563L745.867 327.856L746.924 326.895L747.993 325.599L749.73 323.115L764.604 304.948L763.123 303.574L761.71 301.157Z" fill="#008000"/>
</g>
<g id="disused (smrDisused)">
<path id="car park" d="M693.597 180.159C698.384 189.214 698.249 189.493 696.765 192.559C696.695 192.702 696.623 192.852 696.548 193.008L700.976 203.893L707.734 199.688L697.232 177.555L693.597 180.159Z" fill="#FF0000"/>
<path id="disused rwy 13-31" d="M229.889 158.911L733.946 459.032L725.072 473.936L221.015 173.816L229.889 158.911Z" fill="#FF0000"/>
<path id="disused rwy 04-22" d="M490.427 571.509L475.528 562.619L688.895 205.006L694.238 212.612L696.931 225.398L490.427 571.509Z" fill="#FF0000"/>
<path id="disused rwy 08-26" d="M366.528 415.688L728.441 287.366L727.084 278.09L722.643 271.014L359.239 399.864L362.594 406.472L366.528 415.688Z" fill="#FF0000"/>
<path id="disused perimeter west" d="M244.651 226.689L226.311 183.293C225.36 180.634 225.026 179.341 226.311 176.921L234.574 161.708C234.988 160.976 235.46 160.076 235.987 159.071C238.972 153.377 243.743 144.277 250.126 142.843L247.178 141.244L247.536 140.315L247.544 139.737L245.759 138.885C240.101 139.035 234.214 150.495 230.523 157.68C230.304 158.106 230.092 158.518 229.889 158.911L228.385 168.343L221.015 173.816C221.015 173.816 218.969 179.005 220.713 183.769C220.713 183.769 232.955 213.077 235.217 218.662L244.651 226.689Z" fill="#FF0000"/>
<path id="disused perimeter east" d="M730.043 451.074C728.78 453.889 724.617 453.643 722.955 452.528L726.425 457.735L733.946 459.032C741.795 443.876 728.077 413.047 722.836 399.985C716.51 384.218 705.868 362.322 711.344 347.069L709.104 345.219L706.274 345.823C701.253 361.353 709.272 380.601 717.596 400.581L717.699 400.829C726.042 420.854 733.796 442.712 730.043 451.074Z" fill="#FF0000"/>
<path id="fire road" d="M676.317 306.166L721.765 316.078L723.14 315.473L723.306 313.998L680.91 304.53L677.908 304.165L676.317 306.166Z" fill="#FF0000"/>
</g>
<g id="pavement (smrSCOTaxiway)">
<path id="light apron" d="M692.239 222.687L696.931 225.398L701.743 215.925L707.317 215.112L708.23 214.938L707.317 207.057L702.089 202.291L701.276 202.685L696.548 193.008L688.895 205.006L689.096 209.796L691.045 221.672L692.239 222.687Z" fill="#808080"/>
<path id="main apron" d="M720.64 317.615C727.532 307.96 734.433 300.493 736.168 298.85C734.553 297.148 732.551 291.969 732.551 291.969L730.762 286.552L738.023 281.639L746.299 281.103C746.484 281.45 746.742 281.812 746.742 281.812L747.176 281.639C748.852 284.324 749.943 284.342 749.943 284.342L753.386 282.023L758.884 292.803L751.301 304.669L744.843 305.652L744.454 303.049L739.967 303.263L736.141 307.595C736.141 307.595 735.975 309.22 736.684 309.834L743.511 314.53L740.488 318.685L735.508 323.949L731.742 325.482L725.685 321.19L722.782 319.998L720.64 317.615Z" fill="#808080"/>
<path id="twy B" d="M746.299 281.103L728.441 287.366L722.643 271.014L729.359 268.632C731.605 267.836 732.661 265.265 731.623 263.12L702.089 202.291L707.734 199.688L746.299 281.103Z" fill="#808080"/>
<path id="heli twy" d="M706.274 345.823L711.344 347.069C713.121 338.657 723.983 322.911 725.685 321.19L720.64 317.615C715.531 324.689 708.577 336.464 706.274 345.823Z" fill="#808080"/>
<path id="intersection fillet" d="M550.004 340.543L543.646 351.488L536.505 345.586L550.004 340.543Z" fill="#808080"/>
<path id="turn circ 31 thr" d="M724.395 473.468L712.699 466.629L709.734 461.162L715.451 451.268L721.354 451.426L733.245 458.558L724.395 473.468Z" fill="#808080"/>
<path id="turn circ 31 tdz" d="M621.762 412.372L610.066 405.535L607.102 400.068L612.818 390.172L618.722 390.332L630.612 397.464L621.762 412.372Z" fill="#808080"/>
<path id="turn circ 13 tdz" d="M333.371 220.853L345.668 228.01L348.352 232.974L342.32 242.479L336.855 242.712L324.714 235.323L333.371 220.853Z" fill="#808080"/>
<path id="turn circ 13 thr" d="M230.12 159.39L242.418 166.547L245.102 171.51L239.07 181.016L233.605 181.249L221.464 173.86L230.12 159.39Z" fill="#808080"/>
</g>
<g id="buildings (smrBuilding)">
<path id="terminal" fill-rule="evenodd" clip-rule="evenodd" d="M740.946 309.922L744.684 304.48L745.571 305.091L746.846 303.242L749.781 305.26L750.544 304.149L755.387 307.479L754.623 308.596L755.484 309.184L750.566 316.488L740.946 309.922Z" fill="white"/>
<path id="fire station" fill-rule="evenodd" clip-rule="evenodd" d="M737.803 316.812L745.789 322.434L744.149 324.682L744.989 325.29L742.199 329.12L736.986 325.325L735.943 326.753L736.304 327.013L735.454 328.183L731.754 325.478L733.805 322.626L735.236 323.631L738.057 319.628L736.56 318.575L737.803 316.812Z" fill="white"/>
<path id="control tower" d="M735.963 328.041L737.346 326.144L739.251 327.536L737.874 329.425L735.963 328.041Z" fill="white"/>
</g>
<g id="runways (smrSCORunway)">
<path id="rwy 13-31" d="M228.352 161.493L732.409 461.614L726.678 471.239L222.621 171.118L228.352 161.493Z" fill="black"/>
<path id="rwy 08-26" d="M499.694 359.908L726.02 279.66L723.846 273.528L497.519 353.776L499.694 359.908Z" fill="black"/>
</g>
<g id="markings (smrWhite)">
<g id="rwy 13-31 markings">
<path d="M620.072 397.937L605.498 389.249L606.733 387.175L621.317 395.86L620.072 397.937Z" fill="white"/>
<path d="M601.222 396.128L615.796 404.815L617.041 402.739L602.457 394.055L601.222 396.128Z" fill="white"/>
<path d="M674.241 427.087L683.958 432.879L683.614 433.444L673.892 427.655L674.241 427.087Z" fill="white"/>
<path d="M673.595 428.274L683.313 434.066L682.969 434.629L673.247 428.842L673.595 428.274Z" fill="white"/>
<path d="M682.596 435.237L672.88 429.445L672.533 430.015L682.255 435.803L682.596 435.237Z" fill="white"/>
<path d="M672.169 430.616L681.881 436.406L681.539 436.974L671.817 431.186L672.169 430.616Z" fill="white"/>
<path d="M680.827 438.158L671.113 432.366L670.764 432.934L680.483 438.725L680.827 438.158Z" fill="white"/>
<path d="M670.399 433.537L680.115 439.329L679.771 439.896L670.048 434.107L670.399 433.537Z" fill="white"/>
<path d="M679.4 440.502L669.683 434.708L669.335 435.278L679.056 441.066L679.4 440.502Z" fill="white"/>
<path d="M668.983 435.881L678.7 441.676L678.356 442.239L668.635 436.452L668.983 435.881Z" fill="white"/>
<path d="M355.834 250.023L341.26 241.335L342.494 239.261L357.078 247.945L355.834 250.023Z" fill="white"/>
<path d="M345.453 234.491L360.027 243.178L361.27 241.1L346.687 232.417L345.453 234.491Z" fill="white"/>
<path d="M282.455 203.435L272.74 197.644L273.083 197.077L282.805 202.867L282.455 203.435Z" fill="white"/>
<path d="M273.454 196.471L283.171 202.263L283.52 201.694L273.798 195.905L273.454 196.471Z" fill="white"/>
<path d="M281.792 204.529L272.076 198.737L272.421 198.17L282.143 203.96L281.792 204.529Z" fill="white"/>
<path d="M271.368 199.944L281.085 205.736L281.434 205.167L271.712 199.378L271.368 199.944Z" fill="white"/>
<path d="M284.137 200.397L274.42 194.605L274.764 194.039L284.486 199.828L284.137 200.397Z" fill="white"/>
<path d="M275.135 193.433L284.85 199.225L285.201 198.656L275.479 192.867L275.135 193.433Z" fill="white"/>
<path d="M285.564 198.052L275.849 192.261L276.193 191.695L285.915 197.484L285.564 198.052Z" fill="white"/>
<path d="M276.564 191.178L286.28 196.971L286.629 196.401L276.907 190.612L276.564 191.178Z" fill="white"/>
</g>
<g id="rwy 08-26 markings">
<path d="M700.979 282.192L690.308 285.933L690.518 286.57L701.196 282.819L700.979 282.192Z" fill="white"/>
<path d="M701.417 283.328L690.745 287.07L690.956 287.705L701.635 283.954L701.417 283.328Z" fill="white"/>
<path d="M691.39 289.084L702.062 285.343L702.28 285.969L691.601 289.72L691.39 289.084Z" fill="white"/>
<path d="M702.513 286.603L691.841 290.345L692.051 290.981L702.73 287.229L702.513 286.603Z" fill="white"/>
<path d="M500.391 354.775L511.063 351.035L511.28 351.661L500.601 355.412L500.391 354.775Z" fill="white"/>
<path d="M510.626 349.899L499.953 353.64L500.164 354.276L510.843 350.525L510.626 349.899Z" fill="white"/>
<path d="M501.037 356.791L511.708 353.049L511.927 353.675L501.248 357.426L501.037 356.791Z" fill="white"/>
<path d="M512.158 354.31L501.487 358.051L501.698 358.687L512.376 354.936L512.158 354.31Z" fill="white"/>
</g>
<g id="rwy 31 number">
<path d="M665.987 426.891L665.877 427.073L665.148 426.633L665.076 426.341L665.369 425.856L670.828 429.151L670.535 429.637L665.987 426.891Z" fill="white"/>
<path d="M665.884 429.94L666.953 429.676L669.561 431.25L668.463 433.069L667.553 432.52L668.358 431.186L666.842 430.271L665.481 430.607L665.143 429.245L664.72 428.99L663.915 430.323L663.004 429.774L664.102 427.955L665.62 428.871L665.884 429.94Z" fill="white"/>
</g>
<g id="rwy 13 number">
<path d="M291.529 203.31L291.638 203.128L292.367 203.566L292.44 203.858L292.148 204.343L286.684 201.057L286.976 200.571L291.529 203.31Z" fill="white"/>
<path d="M288.406 205.615L287.337 205.881L284.727 204.311L285.822 202.49L286.733 203.038L285.93 204.373L287.447 205.285L288.808 204.947L289.148 206.308L289.572 206.563L290.375 205.228L291.286 205.776L290.191 207.597L288.672 206.684L288.406 205.615Z" fill="white"/>
</g>
<g id="rwy 26 number">
<path d="M686.134 290.59L688.514 291.137L689.128 290.923L688.7 289.696L689.538 289.405L690.12 291.078L688.669 291.583L686.29 291.036L685.509 291.308L685.781 292.089L686.282 291.914L686.438 292.36L685.099 292.827L684.516 291.153L686.134 290.59Z" fill="white"/>
<path d="M686.041 289.239L685.122 289.559L684.141 289.026L683.525 289.229L684.029 289.503L684.028 289.503L685.079 290.075L689.264 288.618L688.681 286.944L685.613 288.012L686.041 289.239ZM688 287.682L688.272 288.462L686.877 288.948L686.605 288.168L688 287.682Z" fill="white"/>
</g>
<g id="rwy 08 number">
<path d="M519.334 351.976L518.749 350.304L516.883 350.958L516.684 351.371L516.27 351.172L513.734 352.06L514.319 353.731L516.855 352.844L517.054 352.43L517.468 352.629L519.334 351.976ZM514.999 352.993L514.726 352.213L516.314 351.657L516.587 352.437L514.999 352.993ZM517.423 352.145L517.149 351.365L518.07 351.042L518.343 351.822L517.423 352.145Z" fill="white"/>
<path d="M517.889 347.846L512.874 349.602L513.459 351.273L518.474 349.518L517.889 347.846ZM514.138 350.535L513.865 349.755L517.21 348.584L517.483 349.364L514.138 350.535Z" fill="white"/>
</g>
</g>
</g>
<g id="geo">
<g id="holds (smrYellow)">
<path id="B3" d="M736.079 257.198L728.523 260.771" stroke="#FFFF00" stroke-miterlimit="10"/>
<path id="B1" d="M729.905 287.251L746.491 281.383" stroke="#FFFF00"/>
<path id="A1" d="M581.223 331.976L578.422 324.101" stroke="#FFFF00"/>
</g>
<g id="helipads (smrWhite)">
<circle id="H2" cx="693.679" cy="340.617" r="5.0293" stroke="white"/>
<circle id="H1" cx="700.713" cy="320.025" r="5.0293" stroke="white"/>
</g>
<g id="markings (smrWhite)_2">
<path id="helipad marker" d="M737.279 286.451L737.752 287.756M738.224 289.06L737.752 287.756M739.405 288.633L738.932 287.328M738.46 286.024L738.932 287.328M737.752 287.756L738.932 287.328" stroke="white" stroke-width="0.2"/>
<path id="disused markings" d="M483.703 362.305L481.522 365.403M481.522 365.403L479.142 368.782M481.522 365.403L477.517 364.182M481.522 365.403L485.192 366.522M683.954 226.186L684.242 229.962M684.242 229.962L684.556 234.083M684.242 229.962L680.373 231.566M684.242 229.962L687.784 228.493M653.313 277.48L653.601 281.256M653.601 281.256L653.916 285.376M653.601 281.256L649.734 282.86M653.601 281.256L657.144 279.787M625.23 325.81L625.519 329.587M625.519 329.587L625.835 333.706M625.519 329.587L621.654 331.19M625.519 329.587L629.065 328.116M601.066 367.42L601.358 371.234M601.358 371.234L601.671 375.316M601.358 371.234L597.49 372.8M601.358 371.234L604.975 369.771M583.505 395.483L583.794 399.26M583.794 399.26L584.108 403.379M583.794 399.26L579.928 400.863M583.794 399.26L587.339 397.789M709.221 352.311L708.066 349.579M708.066 349.579L706.99 347.035M708.066 349.579L705.877 351.593M708.066 349.579L710.102 347.706M732.027 448.707L732.92 451.321M732.92 451.321L733.879 454.131M732.92 451.321L730.593 453.177M732.92 451.321L735.084 449.595" stroke="white" stroke-width="0.2"/>
<path id="rwy 08-26 line markings" d="M723.736 276.949L726.922 274.575M723.736 276.949L734.503 272.952M723.736 276.949L727.699 276.669M717.98 278.8L707.213 282.797M707.213 282.797L710.398 280.423M707.213 282.797L711.175 282.517M702.803 280.989L704.942 287.059M675.325 294.118L680.381 292.326M655.163 301.267L665.274 297.682M614.84 315.563L624.95 311.979M635.002 308.415L645.112 304.83M574.516 329.86L584.627 326.275M594.678 322.712L604.789 319.127M539.248 342.365L544.303 340.572M554.354 337.008L564.465 333.424" stroke="white" stroke-width="0.2"/>
<path id="rwy 13-31 line markings" d="M251.031 181.434L247.405 180.457M251.031 181.434L248.383 178.771M251.031 181.434L241.278 175.777M267.671 191.224L264.045 190.247M267.671 191.224L265.023 188.561M267.671 191.224L257.919 185.567M274.985 189.29L269.205 198.855M687.807 441.814L691.434 442.791M687.807 441.814L690.456 444.477M687.807 441.814L697.56 447.471M713.327 456.747L703.574 451.091M703.574 451.091L707.2 452.067M703.574 451.091L706.222 453.754M685.837 433.931L680.087 443.498M657.404 423.604L662.215 426.47M638.949 412.606L648.57 418.34M620.494 401.609L630.115 407.342M602.038 390.612L611.66 396.345M583.583 379.615L593.205 385.348M565.128 368.617L574.749 374.351M546.673 357.62L556.294 363.353M528.217 346.623L537.839 352.356M509.762 335.625L519.384 341.359M491.307 324.628L500.928 330.361M472.852 313.631L482.473 319.364M454.396 302.633L464.018 308.367M435.941 291.636L445.563 297.369M417.486 280.639L427.107 286.372M399.031 269.641L408.652 275.375M380.575 258.644L390.197 264.378M362.12 247.647L371.742 253.38M343.665 236.65L353.286 242.383M325.21 225.652L334.831 231.386M306.754 214.655L316.376 220.388M293.11 206.524L297.921 209.391" stroke="white" stroke-width="0.2"/>
</g>
</g>
<g id="labels">
<g id="labels (standHold)">
<text id="2" fill="white" xml:space="preserve" style="white-space: pre" font-family="Inter" font-size="8" letter-spacing="0em"><tspan x="693.257" y="341.526">2</tspan></text>
<text id="1" fill="white" xml:space="preserve" style="white-space: pre" font-family="Inter" font-size="8" letter-spacing="0em"><tspan x="700.851" y="320.959">1</tspan></text>
<text id="B1_2" fill="white" xml:space="preserve" style="white-space: pre" font-family="Inter" font-size="8" letter-spacing="0em"><tspan x="725.236" y="289.502">B1</tspan></text>
<text id="B3_2" fill="white" xml:space="preserve" style="white-space: pre" font-family="Inter" font-size="8" letter-spacing="0em"><tspan x="722.573" y="263.202">B3</tspan></text>
<text id="A1_2" fill="white" xml:space="preserve" style="white-space: pre" font-family="Inter" font-size="8" letter-spacing="0em"><tspan x="576.811" y="319.409">A1</tspan></text>
</g>
</g>
</g>
</svg>
